<svg width="34" height="34" viewBox="0 0 34 34" fill="none" xmlns="http://www.w3.org/2000/svg">
<path d="M11.3333 11.3334L11.3333 9.91671C11.3333 6.7871 13.8703 4.25004 16.9999 4.25004V4.25004C20.1295 4.25004 22.6666 6.78709 22.6666 9.91671L22.6666 11.3334" stroke="#2F2F2F" stroke-width="2" stroke-linecap="round"/>
<path d="M21.25 19.8333V17" stroke="#2F2F2F" stroke-width="2" stroke-linecap="round"/>
<path d="M12.75 19.8333V17" stroke="#2F2F2F" stroke-width="2" stroke-linecap="round"/>
<path d="M5.66675 15.3334C5.66675 13.4478 5.66675 12.5049 6.25253 11.9192C6.83832 11.3334 7.78113 11.3334 9.66675 11.3334H24.3334C26.219 11.3334 27.1618 11.3334 27.7476 11.9192C28.3334 12.5049 28.3334 13.4478 28.3334 15.3334V21.75C28.3334 25.5213 28.3334 27.4069 27.1618 28.5785C25.9903 29.75 24.1047 29.75 20.3334 29.75H13.6667C9.89551 29.75 8.00989 29.75 6.83832 28.5785C5.66675 27.4069 5.66675 25.5213 5.66675 21.75V15.3334Z" stroke="#2F2F2F" stroke-width="2"/>
</svg>
